<svg xmlns="http://www.w3.org/2000/svg" viewBox="0 0 512 512" role="img" aria-labelledby="title desc">
  <title id="title">Aide Mascot</title>
  <desc id="desc">A futuristic purple study mascot holding a tablet.</desc>
  <defs>
    <radialGradient id="bodyGrad" cx="36%" cy="28%" r="72%">
      <stop offset="0%" stop-color="#b975ff"/>
      <stop offset="52%" stop-color="#7d44d7"/>
      <stop offset="100%" stop-color="#4b2a96"/>
    </radialGradient>
    <linearGradient id="tentacleGrad" x1="0%" y1="0%" x2="100%" y2="100%">
      <stop offset="0%" stop-color="#73f6ff"/>
      <stop offset="52%" stop-color="#5bd1ff"/>
      <stop offset="100%" stop-color="#5f7eff"/>
    </linearGradient>
    <linearGradient id="tabGrad" x1="0%" y1="0%" x2="0%" y2="100%">
      <stop offset="0%" stop-color="#7cc9ff"/>
      <stop offset="100%" stop-color="#2f79dd"/>
    </linearGradient>
    <filter id="softShadow" x="-20%" y="-20%" width="140%" height="140%">
      <feDropShadow dx="0" dy="14" stdDeviation="10" flood-color="#1f2a68" flood-opacity="0.32"/>
    </filter>
    <filter id="visorGlow" x="-40%" y="-40%" width="180%" height="180%">
      <feDropShadow dx="0" dy="0" stdDeviation="6" flood-color="#7be9ff" flood-opacity="0.55"/>
    </filter>
  </defs>

  <g filter="url(#softShadow)">
    <ellipse cx="258" cy="455" rx="122" ry="22" fill="#1a2456" opacity="0.26"/>
  </g>

  <g transform="translate(38 26)">
    <path d="M208 94c66 0 120 54 120 120v53c0 66-54 120-120 120s-120-54-120-120v-53c0-66 54-120 120-120z" fill="url(#bodyGrad)"/>
    <ellipse cx="199" cy="120" rx="16" ry="8" fill="#5f2ea7" opacity=".52"/>
    <ellipse cx="231" cy="114" rx="10" ry="6" fill="#5f2ea7" opacity=".52"/>
    <ellipse cx="263" cy="126" rx="14" ry="7" fill="#5f2ea7" opacity=".52"/>

    <path d="M139 250c-29 26-53 53-74 88" stroke="url(#tentacleGrad)" stroke-width="11" stroke-linecap="round"/>
    <path d="M308 258c29 20 59 51 77 88" stroke="url(#tentacleGrad)" stroke-width="11" stroke-linecap="round"/>
    <path d="M114 291c-13 37-15 71-8 107" stroke="url(#tentacleGrad)" stroke-width="11" stroke-linecap="round"/>
    <path d="M329 300c17 35 27 71 30 103" stroke="url(#tentacleGrad)" stroke-width="11" stroke-linecap="round"/>

    <rect x="104" y="188" width="208" height="78" rx="34" fill="#9ad9ff" opacity=".38" filter="url(#visorGlow)"/>
    <rect x="113" y="196" width="190" height="62" rx="30" fill="#d0f3ff" opacity=".77"/>
    <circle cx="169" cy="227" r="13" fill="#c7ebff"/>
    <circle cx="247" cy="227" r="13" fill="#c7ebff"/>
    <circle cx="169" cy="227" r="6" fill="#7fb8ff"/>
    <circle cx="247" cy="227" r="6" fill="#7fb8ff"/>
    <path d="M176 279c16 11 42 11 58 0" stroke="#f8d1d0" stroke-width="6" stroke-linecap="round"/>

    <path d="M66 248l-38 20 31 58 41-13z" fill="#8f57d7"/>
    <rect x="4" y="239" width="73" height="106" rx="10" fill="#244e8f"/>
    <rect x="10" y="245" width="61" height="94" rx="8" fill="url(#tabGrad)"/>
    <circle cx="41" cy="282" r="14" fill="#88d4ff" opacity=".84"/>
    <path d="M23 269l36 27M24 296l35-26" stroke="#b9f5ff" stroke-width="4" stroke-linecap="round" opacity=".78"/>

    <rect x="310" y="196" width="76" height="111" rx="16" fill="#3f2d7c"/>
    <rect x="324" y="213" width="50" height="61" rx="10" fill="#2a355f"/>
    <path d="M332 267l17-35 17 35z" fill="#66b7ff"/>
    <rect x="332" y="278" width="34" height="10" rx="5" fill="#75f3ff"/>

    <path d="M168 366l-18 58h24l15-49z" fill="#5c369f"/>
    <path d="M254 366l16 58h-23l-15-49z" fill="#5c369f"/>
    <rect x="147" y="421" width="46" height="21" rx="10" fill="#343866"/>
    <rect x="242" y="421" width="45" height="21" rx="10" fill="#343866"/>

    <path d="M180 88l82 0 16-19-113 0z" fill="#2f2e68"/>
    <path d="M186 70l71 0 9 12-89 0z" fill="#4a4a9f"/>
    <circle cx="268" cy="88" r="6" fill="#ffcf6f"/>
  </g>
</svg>
